<svg width="1394" height="842" xmlns="http://www.w3.org/2000/svg" xmlns:xlink="http://www.w3.org/1999/xlink" xml:space="preserve" overflow="hidden"><g transform="translate(-334 -234)"><path d="M766.698 729.499C599.08 729.808 462.886 621.487 462.5 487.558 462.115 353.629 597.683 244.809 765.301 244.501 765.534 244.5 765.767 244.5 766 244.5" stroke="#fff" stroke-width="20.625" stroke-miterlimit="8" fill="none" fill-rule="evenodd"/><path d="M766.5 244.5 1716.68 244.5" stroke="#fff" stroke-width="20.625" stroke-linecap="round" stroke-miterlimit="8" fill="none" fill-rule="evenodd"/><path d="M766.5 729.5 1254.8 729.501" stroke="#fff" stroke-width="20.625" stroke-miterlimit="8" fill="none" fill-rule="evenodd"/><path d="M1254.5 729.5C1324.82 729.391 1381.35 770.94 1381.5 822.302 1381.65 873.665 1325.36 915.391 1255.77 915.5 1255.68 915.5 1255.59 915.5 1255.5 915.5" stroke="#fff" stroke-width="20.625" stroke-miterlimit="8" fill="none" fill-rule="evenodd"/><path d="M0 0 355.725 0.00144357" stroke="#fff" stroke-width="20.625" stroke-linecap="round" stroke-miterlimit="8" fill="none" fill-rule="evenodd" transform="matrix(1 0 0 -1 899.5 915.501)"/><path d="M773.985 655.5C662.424 655.723 571.768 580.465 571.5 487.405 571.232 394.345 661.453 318.724 773.015 318.501 773.176 318.501 773.338 318.5 773.5 318.5" stroke="#fff" stroke-width="20.625" stroke-miterlimit="8" fill="none" fill-rule="evenodd"/><path d="M0 0 707.552 0.000721785" stroke="#fff" stroke-width="20.625" stroke-linecap="round" stroke-miterlimit="8" fill="none" fill-rule="evenodd" transform="matrix(1 0 0 -1 773.5 318.501)"/><path d="M773.5 655.5 1274.12 655.502" stroke="#fff" stroke-width="20.625" stroke-miterlimit="8" fill="none" fill-rule="evenodd"/><path d="M1274.02 655.501C1392.21 655.294 1488.23 729.672 1488.5 821.627 1488.76 913.583 1393.17 988.294 1274.98 988.5 1274.82 988.501 1274.66 988.501 1274.5 988.501" stroke="#fff" stroke-width="20.625" stroke-miterlimit="8" fill="none" fill-rule="evenodd"/><path d="M0 0 689.505 0.950952" stroke="#fff" stroke-width="20.625" stroke-linecap="round" stroke-miterlimit="8" fill="none" fill-rule="evenodd" transform="matrix(-1 0 0 1 1275.01 988.5)"/><path d="M1296 581.501C1463.92 581.194 1600.11 689.292 1600.5 822.945 1600.88 956.598 1465.31 1065.19 1297.7 1065.5 1297.46 1065.5 1297.23 1065.5 1297 1065.5" stroke="#fff" stroke-width="20.625" stroke-miterlimit="8" fill="none" fill-rule="evenodd"/><path d="M800.5 581.5 1296.32 581.5" stroke="#fff" stroke-width="20.625" stroke-miterlimit="8" fill="none" fill-rule="evenodd"/><path d="M344.5 1065.5 1296.86 1065.5" stroke="#fff" stroke-width="20.625" stroke-linecap="round" stroke-miterlimit="8" fill="none" fill-rule="evenodd"/><path d="M800.768 581.5C732.837 581.612 677.648 540.065 677.5 488.703 677.352 437.34 732.301 395.612 800.232 395.5 800.322 395.5 800.411 395.5 800.5 395.5" stroke="#fff" stroke-width="20.625" stroke-miterlimit="8" fill="none" fill-rule="evenodd"/><path d="M1162.97 395.501 800.5 395.5" stroke="#fff" stroke-width="20.625" stroke-linecap="round" stroke-miterlimit="8" fill="none" fill-rule="evenodd"/></g></svg>