<svg width="1401" height="849" xmlns="http://www.w3.org/2000/svg" xmlns:xlink="http://www.w3.org/1999/xlink" xml:space="preserve" overflow="hidden"><g transform="translate(-330 -230)"><path d="M766.198 729C598.58 729.308 462.386 620.987 462.001 487.058 461.615 353.13 597.183 244.309 764.802 244.001 765.034 244 765.267 244 765.5 244" stroke="#FFFFFF" stroke-width="27.5" stroke-miterlimit="8" fill="none" fill-rule="evenodd"/><path d="M766 244 1716.18 244" stroke="#FFFFFF" stroke-width="27.5" stroke-linecap="round" stroke-miterlimit="8" fill="none" fill-rule="evenodd"/><path d="M766 729 1254.3 729.001" stroke="#FFFFFF" stroke-width="27.5" stroke-miterlimit="8" fill="none" fill-rule="evenodd"/><path d="M1254.73 729C1324.32 728.891 1380.85 770.44 1381 821.802 1381.15 873.165 1324.86 914.891 1255.27 915 1255.18 915 1255.09 915 1255 915" stroke="#FFFFFF" stroke-width="27.5" stroke-miterlimit="8" fill="none" fill-rule="evenodd"/><path d="M0 0 355.725 0.00144357" stroke="#FFFFFF" stroke-width="27.5" stroke-linecap="round" stroke-miterlimit="8" fill="none" fill-rule="evenodd" transform="matrix(1 0 0 -1 899 915.002)"/><path d="M773.485 655C661.924 655.223 571.268 579.965 571 486.905 570.732 393.845 660.953 318.224 772.514 318.001 772.676 318 772.838 318 773 318" stroke="#FFFFFF" stroke-width="27.5" stroke-miterlimit="8" fill="none" fill-rule="evenodd"/><path d="M0 0 707.552 0.000721785" stroke="#FFFFFF" stroke-width="27.5" stroke-linecap="round" stroke-miterlimit="8" fill="none" fill-rule="evenodd" transform="matrix(1 0 0 -1 773 318.001)"/><path d="M773 655 1273.62 655.001" stroke="#FFFFFF" stroke-width="27.5" stroke-miterlimit="8" fill="none" fill-rule="evenodd"/><path d="M1273.52 655C1391.71 654.794 1487.73 729.172 1488 821.127 1488.26 913.082 1392.67 987.794 1274.48 988 1274.32 988 1274.16 988 1274 988" stroke="#FFFFFF" stroke-width="27.5" stroke-miterlimit="8" fill="none" fill-rule="evenodd"/><path d="M0 0 689.505 0.950952" stroke="#FFFFFF" stroke-width="27.5" stroke-linecap="round" stroke-miterlimit="8" fill="none" fill-rule="evenodd" transform="matrix(-1 0 0 1 1274.51 988)"/><path d="M1295.8 581.001C1463.42 580.694 1599.61 688.792 1600 822.445 1600.38 956.097 1464.81 1064.69 1297.2 1065 1296.96 1065 1296.73 1065 1296.5 1065" stroke="#FFFFFF" stroke-width="27.5" stroke-miterlimit="8" fill="none" fill-rule="evenodd"/><path d="M800 581 1295.82 581.003" stroke="#FFFFFF" stroke-width="27.5" stroke-miterlimit="8" fill="none" fill-rule="evenodd"/><path d="M344 1065 1296.36 1065" stroke="#FFFFFF" stroke-width="27.5" stroke-linecap="round" stroke-miterlimit="8" fill="none" fill-rule="evenodd"/><path d="M800.268 581C732.337 581.112 677.148 539.565 677 488.202 676.852 436.84 731.801 395.112 799.732 395 799.821 395 799.911 395 800 395" stroke="#FFFFFF" stroke-width="27.5" stroke-miterlimit="8" fill="none" fill-rule="evenodd"/><path d="M1162.47 395 800 395" stroke="#FFFFFF" stroke-width="27.5" stroke-linecap="round" stroke-miterlimit="8" fill="none" fill-rule="evenodd"/></g></svg>